<svg width="14" height="14" viewBox="0 0 14 14" fill="none" xmlns="http://www.w3.org/2000/svg">
<path fill-rule="evenodd" clip-rule="evenodd" d="M2.91667 1.75H11.0833C11.725 1.75 12.25 2.275 12.25 2.91667V11.0833C12.25 11.725 11.725 12.25 11.0833 12.25H2.91667C2.275 12.25 1.75 11.725 1.75 11.0833V2.91667C1.75 2.275 2.275 1.75 2.91667 1.75ZM3.5 11.0833H10.5C10.8208 11.0833 11.0833 10.8208 11.0833 10.5V3.5C11.0833 3.17917 10.8208 2.91667 10.5 2.91667H3.5C3.17917 2.91667 2.91667 3.17917 2.91667 3.5V10.5C2.91667 10.8208 3.17917 11.0833 3.5 11.0833Z" fill="black" fill-opacity="0.54"/>
</svg>
