<svg width="14" height="18" viewBox="4.5 1.5 9 15" fill="none" xmlns="http://www.w3.org/2000/svg">
<path fill-rule="evenodd" clip-rule="evenodd" d="M4.5 3C4.5 2.175 5.175 1.5 6 1.5H12C12.825 1.5 13.5 2.175 13.5 3V5.385C13.5 5.7825 13.3425 6.165 13.0575 6.45L10.5 9L13.065 11.5725C13.3425 11.85 13.5 12.2325 13.5 12.63V15C13.5 15.825 12.825 16.5 12 16.5H6C5.175 16.5 4.5 15.825 4.5 15V12.63C4.5 12.2325 4.6575 11.85 4.935 11.565L7.5 9L4.9425 6.4425C4.6575 6.1575 4.5 5.775 4.5 5.3775V3ZM12 12.6V12.375L9 9.375L6 12.375V12.6H12ZM6 4.95001H12V3.75C12 3.3375 11.6625 3 11.25 3H6.75C6.3375 3 6 3.3375 6 3.75V4.95001Z" fill="#00778B"/>
</svg>
