<svg width="12" height="12" viewBox="0 0 12 12" fill="none" xmlns="http://www.w3.org/2000/svg">
<path d="M11.0935 5.25369H2.71599L6.37599 1.59369C6.66849 1.30119 6.66849 0.82119 6.37599 0.52869C6.23587 0.388251 6.04563 0.309326 5.84724 0.309326C5.64885 0.309326 5.45861 0.388251 5.31849 0.52869L0.375991 5.47119C0.0834912 5.76369 0.0834912 6.23619 0.375991 6.52869L5.31849 11.4712C5.61099 11.7637 6.08349 11.7637 6.37599 11.4712C6.66849 11.1787 6.66849 10.7062 6.37599 10.4137L2.71599 6.75369H11.0935C11.506 6.75369 11.8435 6.41619 11.8435 6.00369C11.8435 5.59119 11.506 5.25369 11.0935 5.25369Z" fill="#2371A6"/>
</svg>
