<svg width="18" height="18" viewBox="0 0 18 18" fill="none" xmlns="http://www.w3.org/2000/svg">
<path fill-rule="evenodd" clip-rule="evenodd" d="M9.8775 1.5C10.275 1.5 10.6575 1.6575 10.9425 1.9425L14.5575 5.565C14.8425 5.8425 15 6.225 15 6.6225V15C15 15.825 14.325 16.5 13.5 16.5H4.4925C3.6675 16.5 3 15.825 3 15V3C3 2.175 3.675 1.5 4.5 1.5H9.8775ZM6.75 13.5H11.25C11.6625 13.5 12 13.1625 12 12.75C12 12.3375 11.6625 12 11.25 12H6.75C6.3375 12 6 12.3375 6 12.75C6 13.1625 6.3375 13.5 6.75 13.5ZM11.25 10.5H6.75C6.3375 10.5 6 10.1625 6 9.75C6 9.3375 6.3375 9 6.75 9H11.25C11.6625 9 12 9.3375 12 9.75C12 10.1625 11.6625 10.5 11.25 10.5ZM9.75 2.625V6C9.75 6.4125 10.0875 6.75 10.5 6.75H13.875L9.75 2.625Z" fill="#236FA6"/>
</svg>
