<svg width="14" height="18" viewBox="0 0 14 18" fill="none" xmlns="http://www.w3.org/2000/svg">
<path fill-rule="evenodd" clip-rule="evenodd" d="M1.1425 3.28219L6.3925 0.949687C6.775 0.777188 7.225 0.777188 7.6075 0.949687L12.8575 3.28219C13.3975 3.52219 13.75 4.06219 13.75 4.65469V8.17969C13.75 12.3422 10.87 16.2347 7 17.1797C3.13 16.2347 0.25 12.3422 0.25 8.17969V4.65469C0.25 4.06219 0.6025 3.52219 1.1425 3.28219ZM3.02501 10.2047L4.96751 12.1472C5.26001 12.4397 5.74001 12.4397 6.02501 12.1472L10.9675 7.20469C11.26 6.91219 11.26 6.43969 10.9675 6.14719C10.675 5.85469 10.2025 5.85469 9.91001 6.14719L5.50001 10.5572L4.08251 9.14719C3.79001 8.85469 3.31751 8.85469 3.02501 9.14719C2.88457 9.28731 2.80565 9.47755 2.80565 9.67594C2.80565 9.87433 2.88457 10.0646 3.02501 10.2047Z" fill="#579A36"/>
</svg>
