<svg width="55" height="55" viewBox="0 0 55 55" fill="none" xmlns="http://www.w3.org/2000/svg">
<path fill-rule="evenodd" clip-rule="evenodd" d="M34.8024 33.164H36.6128L46.3295 42.9265C47.2691 43.8661 47.2691 45.4015 46.3295 46.3411C45.3899 47.2807 43.8545 47.2807 42.9149 46.3411L33.1753 36.6015V34.7911L32.5566 34.1494C29.3483 36.8994 24.9712 38.3202 20.3191 37.5411C13.9483 36.464 8.86076 31.1473 8.08159 24.7307C6.88993 15.0369 15.0483 6.87857 24.742 8.07024C31.1587 8.84941 36.4753 13.9369 37.5524 20.3077C38.3316 24.9598 36.9108 29.3369 34.1608 32.5452L34.8024 33.164ZM12.5503 22.8515C12.5503 28.5577 17.1566 33.164 22.8628 33.164C28.5691 33.164 33.1753 28.5577 33.1753 22.8515C33.1753 17.1452 28.5691 12.539 22.8628 12.539C17.1566 12.539 12.5503 17.1452 12.5503 22.8515Z" fill="black" fill-opacity="0.54"/>
</svg>
