<svg width="18" height="18" viewBox="0 0 18 18" fill="none" xmlns="http://www.w3.org/2000/svg">
<path fill-rule="evenodd" clip-rule="evenodd" d="M2.0625 4.5C2.0625 3.8775 2.565 3.375 3.1875 3.375C3.81 3.375 4.3125 3.8775 4.3125 4.5C4.3125 5.1225 3.81 5.625 3.1875 5.625C2.565 5.625 2.0625 5.1225 2.0625 4.5ZM2.0625 9C2.0625 8.3775 2.565 7.875 3.1875 7.875C3.81 7.875 4.3125 8.3775 4.3125 9C4.3125 9.6225 3.81 10.125 3.1875 10.125C2.565 10.125 2.0625 9.6225 2.0625 9ZM3.1875 12.375C2.565 12.375 2.0625 12.885 2.0625 13.5C2.0625 14.115 2.5725 14.625 3.1875 14.625C3.8025 14.625 4.3125 14.115 4.3125 13.5C4.3125 12.885 3.81 12.375 3.1875 12.375ZM15.1875 14.25H6.1875C5.775 14.25 5.4375 13.9125 5.4375 13.5C5.4375 13.0875 5.775 12.75 6.1875 12.75H15.1875C15.6 12.75 15.9375 13.0875 15.9375 13.5C15.9375 13.9125 15.6 14.25 15.1875 14.25ZM6.1875 9.75H15.1875C15.6 9.75 15.9375 9.4125 15.9375 9C15.9375 8.5875 15.6 8.25 15.1875 8.25H6.1875C5.775 8.25 5.4375 8.5875 5.4375 9C5.4375 9.4125 5.775 9.75 6.1875 9.75ZM6.1875 5.25C5.775 5.25 5.4375 4.9125 5.4375 4.5C5.4375 4.0875 5.775 3.75 6.1875 3.75H15.1875C15.6 3.75 15.9375 4.0875 15.9375 4.5C15.9375 4.9125 15.6 5.25 15.1875 5.25H6.1875Z" fill="white"/>
</svg>
