<svg width="20" height="20" viewBox="0 0 20 20" fill="none" xmlns="http://www.w3.org/2000/svg">
<path fill-rule="evenodd" clip-rule="evenodd" d="M15.0011 5.83333C15.0011 5.375 14.6261 5 14.1677 5C13.7094 5 13.3344 5.375 13.3344 5.83333V14.1667C13.3344 14.625 13.7094 15 14.1677 15C14.6261 15 15.0011 14.625 15.0011 14.1667V5.83333ZM8.48438 10L5.24271 6.75833C4.92605 6.44166 4.92605 5.90833 5.24271 5.58333C5.39841 5.42729 5.60978 5.33959 5.83021 5.33959C6.05064 5.33959 6.26202 5.42729 6.41771 5.58333L10.2427 9.41666C10.5677 9.74166 10.5677 10.2667 10.2427 10.5917L6.41771 14.4167C6.09271 14.7417 5.56771 14.7417 5.24271 14.4167C4.91771 14.0917 4.91771 13.5667 5.24271 13.2417L8.48438 10Z" fill="#236FA6"/>
</svg>
