<svg width="18" height="18" viewBox="0 0 18 18" fill="none" xmlns="http://www.w3.org/2000/svg">
<path fill-rule="evenodd" clip-rule="evenodd" d="M6 1.5C5.175 1.5 4.5 2.175 4.5 3V5.3775C4.5 5.775 4.6575 6.1575 4.9425 6.4425L7.5 9L4.935 11.565C4.6575 11.85 4.5 12.2325 4.5 12.63V15C4.5 15.825 5.175 16.5 6 16.5H12C12.825 16.5 13.5 15.825 13.5 15V12.63C13.5 12.2325 13.3425 11.85 13.065 11.5725L10.5 9L13.0575 6.45C13.3425 6.165 13.5 5.7825 13.5 5.385V3C13.5 2.175 12.825 1.5 12 1.5H6ZM12 12.375V14.25C12 14.6625 11.6625 15 11.25 15H6.75C6.3375 15 6 14.6625 6 14.25V12.375L9 9.375L12 12.375ZM6 5.625L9 8.625L12 5.625V3.75C12 3.3375 11.6625 3 11.25 3H6.75C6.3375 3 6 3.3375 6 3.75V5.625Z" fill="#00778B"/>
<path d="M12.1501 4.94995H5.8501V5.84995L9.0001 8.99995L12.1501 5.84995V4.94995Z" fill="#00778B"/>
<path d="M12.1501 12.6H5.8501V15.3H12.1501V12.6Z" fill="#00778B"/>
</svg>
