<svg width="14" height="14" viewBox="0 0 14 14" fill="none" xmlns="http://www.w3.org/2000/svg">
<path fill-rule="evenodd" clip-rule="evenodd" d="M0.333008 6.98532C0.333008 3.3121 3.31967 0.330933 6.99967 0.330933C10.6797 0.330933 13.6663 3.3121 13.6663 6.98532C13.6663 10.6585 10.6797 13.6397 6.99967 13.6397C3.31967 13.6397 0.333008 10.6585 0.333008 6.98532ZM1.66634 6.98532C1.66634 9.91991 4.05967 12.3088 6.99967 12.3088C9.93967 12.3088 12.333 9.91991 12.333 6.98532C12.333 4.05074 9.93967 1.66181 6.99967 1.66181C4.05967 1.66181 1.66634 4.05074 1.66634 6.98532ZM7.66634 9.64708V10.978H6.33301V9.64708H7.66634ZM4.45302 4.87588C4.81968 3.66478 6.03302 2.81967 7.40635 3.0193C8.56635 3.19232 9.47968 4.17051 9.63968 5.32838C9.79174 6.40209 9.19684 6.92017 8.62265 7.42021C8.51715 7.51208 8.41235 7.60335 8.31302 7.69734C8.23302 7.77054 8.15968 7.84374 8.09302 7.92359C8.08968 7.92692 8.08635 7.93191 8.08302 7.9369C8.07968 7.94189 8.07635 7.94688 8.07302 7.95021C8.00635 8.03006 7.93968 8.11657 7.88635 8.20973C7.87968 8.21971 7.87468 8.22969 7.86968 8.23967C7.86468 8.24965 7.85968 8.25964 7.85302 8.26962C7.73968 8.46925 7.66635 8.70215 7.66635 8.98164H6.33302C6.33302 8.64892 6.38635 8.37609 6.46635 8.14984C6.46927 8.14109 6.47091 8.13361 6.4724 8.12686C6.4743 8.1182 6.47594 8.11073 6.47968 8.10326C6.48302 8.09328 6.48802 8.08496 6.49302 8.07664C6.49802 8.06832 6.50302 8.06 6.50635 8.05002C6.55302 7.93024 6.61302 7.81712 6.67302 7.7173C6.67635 7.71065 6.67968 7.70566 6.68302 7.70067C6.68635 7.69568 6.68968 7.69069 6.69302 7.68403C6.69302 7.6807 6.69468 7.67904 6.69635 7.67738C6.69802 7.67571 6.69968 7.67405 6.69968 7.67072C6.92674 7.3294 7.23125 7.09564 7.51602 6.87704C7.92524 6.5629 8.29371 6.28005 8.33302 5.75426C8.38635 5.10878 7.91968 4.48992 7.28635 4.35684C6.59968 4.21044 5.96635 4.61636 5.75302 5.2086C5.65968 5.46146 5.43968 5.65444 5.16635 5.65444H5.03302C4.62635 5.65444 4.33302 5.26183 4.45302 4.87588Z" fill="#2371A6"/>
</svg>
