<svg width="10" height="16" viewBox="0 0 10 16" fill="none" xmlns="http://www.w3.org/2000/svg">
<path fill-rule="evenodd" clip-rule="evenodd" d="M2 0.5C1.175 0.5 0.5 1.175 0.5 2V4.3775C0.5 4.775 0.6575 5.1575 0.9425 5.4425L3.5 8L0.935 10.565C0.6575 10.85 0.5 11.2325 0.5 11.63V14C0.5 14.825 1.175 15.5 2 15.5H8C8.825 15.5 9.5 14.825 9.5 14V11.63C9.5 11.2325 9.3425 10.85 9.065 10.5725L6.5 8L9.0575 5.45C9.3425 5.165 9.5 4.7825 9.5 4.385V2C9.5 1.175 8.825 0.5 8 0.5H2ZM8 11.375V13.25C8 13.6625 7.6625 14 7.25 14H2.75C2.3375 14 2 13.6625 2 13.25V11.375L5 8.375L8 11.375ZM2 4.625L5 7.625L8 4.625V2.75C8 2.3375 7.6625 2 7.25 2H2.75C2.3375 2 2 2.3375 2 2.75V4.625Z" fill="#00778B"/>
</svg>
