<svg width="12" height="12" viewBox="0 0 12 12" fill="none" xmlns="http://www.w3.org/2000/svg">
<path fill-rule="evenodd" clip-rule="evenodd" d="M1.91667 0.75H10.0833C10.725 0.75 11.25 1.275 11.25 1.91667V10.0833C11.25 10.725 10.725 11.25 10.0833 11.25H1.91667C1.275 11.25 0.75 10.725 0.75 10.0833V1.91667C0.75 1.275 1.275 0.75 1.91667 0.75ZM4.42501 8.5025C4.65251 8.73 5.02001 8.73 5.24751 8.5025L9.66918 4.075C9.89668 3.8475 9.89668 3.48 9.66918 3.2525C9.44168 3.025 9.07418 3.025 8.84668 3.2525L4.83335 7.26583L3.15335 5.58583C2.92585 5.35833 2.55835 5.35833 2.33085 5.58583C2.22162 5.69482 2.16023 5.84278 2.16023 5.99708C2.16023 6.15139 2.22162 6.29935 2.33085 6.40833L4.42501 8.5025Z" fill="#579A36"/>
</svg>
