<svg width="10" height="12" viewBox="0 0 10 12" fill="none" xmlns="http://www.w3.org/2000/svg">
<path fill-rule="evenodd" clip-rule="evenodd" d="M6.99991 4.33337H8.05991C8.65325 4.33337 8.94658 5.05337 8.52658 5.47337L5.46658 8.53337C5.20658 8.79337 4.78658 8.79337 4.52658 8.53337L1.46658 5.47337C1.04658 5.05337 1.34658 4.33337 1.93991 4.33337H2.99991V1.00004C2.99991 0.633374 3.29991 0.333374 3.66658 0.333374H6.33325C6.69991 0.333374 6.99991 0.633374 6.99991 1.00004V4.33337ZM0.999919 11.6667C0.633252 11.6667 0.333252 11.3667 0.333252 11C0.333252 10.6334 0.633252 10.3334 0.999919 10.3334H8.99992C9.36659 10.3334 9.66659 10.6334 9.66659 11C9.66659 11.3667 9.36659 11.6667 8.99992 11.6667H0.999919Z" fill="#2371A6"/>
</svg>
