<svg width="18" height="18" viewBox="0 0 18 18" fill="none" xmlns="http://www.w3.org/2000/svg">
<path fill-rule="evenodd" clip-rule="evenodd" d="M9 1.5C4.86 1.5 1.5 4.86 1.5 9C1.5 13.14 4.86 16.5 9 16.5C13.14 16.5 16.5 13.14 16.5 9C16.5 4.86 13.14 1.5 9 1.5ZM12.18 5.82C11.3025 4.9425 10.155 4.5 9 4.5V9L5.82 12.18C7.575 13.935 10.425 13.935 12.1875 12.18C13.9425 10.425 13.9425 7.575 12.18 5.82ZM3 9C3 12.315 5.685 15 9 15C12.315 15 15 12.315 15 9C15 5.685 12.315 3 9 3C5.685 3 3 5.685 3 9Z" fill="#D87214"/>
</svg>
