<svg width="18" height="18" viewBox="0 0 18 18" fill="none" xmlns="http://www.w3.org/2000/svg">
<path fill-rule="evenodd" clip-rule="evenodd" d="M3.75 2.25H14.25C15.075 2.25 15.75 2.925 15.75 3.75V14.25C15.75 15.075 15.075 15.75 14.25 15.75H3.75C2.925 15.75 2.25 15.075 2.25 14.25V12C2.25 11.5875 2.5875 11.25 3 11.25C3.4125 11.25 3.75 11.5875 3.75 12V13.5C3.75 13.9125 4.0875 14.25 4.5 14.25H13.5C13.9125 14.25 14.25 13.9125 14.25 13.5V4.5C14.25 4.0875 13.9125 3.75 13.5 3.75H4.5C4.0875 3.75 3.75 4.0875 3.75 4.5V6C3.75 6.4125 3.4125 6.75 3 6.75C2.5875 6.75 2.25 6.4125 2.25 6V3.75C2.25 2.925 2.9175 2.25 3.75 2.25ZM9.15 12.2175C8.8575 12.51 8.385 12.51 8.0925 12.2175C7.8075 11.9325 7.8 11.4525 8.0925 11.16L9.5025 9.75H3C2.5875 9.75 2.25 9.4125 2.25 9C2.25 8.5875 2.5875 8.25 3 8.25H9.5025L8.0925 6.8325C7.8 6.54 7.8 6.0675 8.0925 5.775C8.23262 5.63456 8.42286 5.55564 8.62125 5.55564C8.81964 5.55564 9.00988 5.63456 9.15 5.775L11.8425 8.4675C12.135 8.76 12.135 9.2325 11.8425 9.525L9.15 12.2175Z" fill="white"/>
</svg>
