<svg width="18" height="18" viewBox="0 0 18 18" fill="none" xmlns="http://www.w3.org/2000/svg">
<path fill-rule="evenodd" clip-rule="evenodd" d="M2.22473 3.80896L8.97473 0.80896L15.7247 3.80896V8.30896C15.7247 12.4715 12.8447 16.364 8.97473 17.309C5.10473 16.364 2.22473 12.4715 2.22473 8.30896V3.80896ZM9.75775 15.4584C12.3687 14.2695 14.2247 11.3982 14.2247 8.30896V4.78396L9.75775 2.79934L9.75775 15.4584ZM8.34202 15.5246V14.1517L6.98286 14.7514C7.4073 15.0597 7.86255 15.3204 8.34202 15.5246ZM8.34202 12.6043L5.82795 13.7136C5.55811 13.4166 5.30951 13.0974 5.085 12.7598L8.34202 11.3227V12.6043ZM8.34202 9.7753L8.34202 8.49362L4.01045 10.4048C4.11514 10.7847 4.24713 11.1552 4.40396 11.5128L8.34202 9.7753ZM8.34202 6.94621V5.66458L3.72473 7.70182V8.30896C3.72473 8.53093 3.73431 8.75176 3.75307 8.97094L8.34202 6.94621ZM8.34202 4.11718V2.73257L3.72473 4.78396V6.15441L8.34202 4.11718Z" fill="#D87214"/>
</svg>
