<?xml version="1.0" encoding="utf-8"?>
<!-- Generator: Adobe Illustrator 25.4.1, SVG Export Plug-In . SVG Version: 6.00 Build 0)  -->
<svg version="1.1"
	 id="svg10" xmlns:cc="http://creativecommons.org/ns#" xmlns:dc="http://purl.org/dc/elements/1.1/" xmlns:inkscape="http://www.inkscape.org/namespaces/inkscape" xmlns:rdf="http://www.w3.org/1999/02/22-rdf-syntax-ns#" xmlns:sodipodi="http://sodipodi.sourceforge.net/DTD/sodipodi-0.dtd" xmlns:svg="http://www.w3.org/2000/svg"
	 xmlns="http://www.w3.org/2000/svg" xmlns:xlink="http://www.w3.org/1999/xlink" x="0px" y="0px" viewBox="0 0 1200 373"
	 style="enable-background:new 0 0 1200 373;" xml:space="preserve">
<style type="text/css">
	.st0{fill:#FFFFFF;}
</style>
<g>
	<g>
		<polygon class="st0" points="424.5,193.8 424.2,190.7 443.8,226.1 443.9,226.3 451.9,226.3 451.9,185.1 446.7,185.1 446.7,217.4 
			447.1,221.8 427,185.3 426.9,185.1 419.3,185.1 419.3,226.3 424.5,226.3 		"/>
		<polygon class="st0" points="487.1,189.2 487.1,189.2 487.1,185.1 461.3,185.1 461.3,189.7 481,189.7 459.9,221.8 459.9,221.9 
			459.9,226.3 488.3,226.3 488.3,221.7 465.7,221.7 		"/>
		<polygon class="st0" points="536.9,185.1 503.9,185.1 503.9,189.7 517.8,189.7 517.8,226.3 523.1,226.3 523.1,189.7 536.9,189.7 
					"/>
		<g>
			<path class="st0" d="M564.5,198.1c0,5.6-3.4,8.3-10.5,8.3h-5.6v-16.8h7c3.2,0,5.5,0.7,7,2C563.8,192.9,564.5,195.1,564.5,198.1
				 M575.2,227l1.1-4.5l-0.3-0.1c-0.9-0.2-2-0.8-3.4-1.7c-1.6-1.1-3.1-2.5-4.4-4l-6-7.3c5.2-2.1,7.9-6,7.9-11.6
				c0-8.4-4.5-12.7-13.4-12.7h-13.5v41.2h5.3v-15.5h5.2c1.2,0,2.3-0.1,3.2-0.2l8.1,10.1c3.2,4,6.6,6.1,9.9,6.3L575.2,227z"/>
		</g>
		<path class="st0" d="M591.3,206.7l6.9-17.7l6.1,17.7H591.3z M589.6,211.1h16.2l5.3,15.3h5.5l-14.2-41l-0.1-0.2h-7.7l-16.2,41.2
			h5.3L589.6,211.1z"/>
		<polygon class="st0" points="649.3,217.4 649.7,221.8 629.6,185.3 629.5,185.1 621.9,185.1 621.9,226.3 627.2,226.3 627.2,193.8 
			626.9,190.7 646.4,226.1 646.5,226.3 654.6,226.3 654.6,185.1 649.3,185.1 		"/>
		<g>
			<path class="st0" d="M683.7,205.9l-9.7-5c-3.4-1.8-5-3.9-5-6.2c0-3.6,2.4-5.3,7.5-5.3c3.3,0,6.1,0.5,8.3,1.4l0.3,0.1l1.7-4.2
				l-0.3-0.1c-2.4-1.2-5.9-1.8-10.2-1.8c-3.5,0-6.4,0.8-8.6,2.4c-2.4,1.8-3.7,4.4-3.7,7.7c0,3.9,1.8,7,5.3,9.4
				c3.2,1.6,6.4,3.2,9.6,4.8c3.3,1.8,4.9,4.1,4.9,6.7c0,2.3-0.9,4-2.8,5.2c-1.6,1-3.8,1.5-6.6,1.5c-3,0-6.2-0.8-9.5-2.3l-0.3-0.2
				l-1.8,4.4l0.2,0.2c0.7,0.5,1.9,1,3.7,1.5c2.5,0.7,5.1,1,7.8,1c4.3,0,7.7-0.9,10.3-2.8c2.9-2,4.3-5,4.3-8.8
				C689.1,211.6,687.3,208.4,683.7,205.9"/>
			<path class="st0" d="M715.9,204.4c-1.7,1.1-4.2,1.7-7.6,1.9h-5.6v-16.8h7c3.2,0,5.5,0.7,7,2c1.4,1.4,2.2,3.6,2.2,6.5
				C718.8,200.9,717.8,203.1,715.9,204.4 M710.9,185.1h-13.5v41.2h5.3v-15.5h5.2c5.4,0,9.6-1.3,12.4-3.8c2.7-2.3,4-5.4,4-9.3
				C724.4,189.4,719.9,185.1,710.9,185.1"/>
			<path class="st0" d="M765.4,205.7c0,5-1.3,8.9-3.8,11.9c-2.8,3.2-6.7,4.8-11.7,4.8c-4.7,0-8.5-1.7-11.1-5
				c-2.5-3.1-3.8-7-3.8-11.8c0-4.8,1.3-8.8,3.9-11.7c2.7-3.1,6.6-4.7,11.4-4.7c4.7,0,8.4,1.6,11.2,4.7
				C764.1,196.9,765.4,200.9,765.4,205.7 M750.8,184.5c-6.3,0-11.5,1.9-15.4,5.7c-3.9,3.8-5.8,9-5.8,15.4c0,6.4,1.8,11.5,5.2,15.4
				c3.6,4,8.7,6,14.9,6c6.5,0,11.7-2,15.4-5.8c3.8-3.9,5.7-9.1,5.7-15.4c0-6.2-1.7-11.4-5-15.2C762.3,186.5,757.2,184.5,750.8,184.5
				"/>
			<path class="st0" d="M782.3,189.5h7c3.2,0,5.5,0.7,6.9,2c1.4,1.3,2.2,3.5,2.2,6.5c0,5.6-3.4,8.3-10.5,8.3h-5.6L782.3,189.5
				L782.3,189.5z M806.5,220.7c-1.7-1.1-3.1-2.5-4.4-4l-6-7.3c5.2-2.1,7.9-6,7.9-11.6c0-8.4-4.5-12.7-13.4-12.7H777v41.2h5.3v-15.5
				h5.2c1.2,0,2.3-0.1,3.2-0.2l8.1,10.1c3.2,4,6.6,6.1,9.9,6.3l0.3,0l1.1-4.5l-0.3-0.1C809,222.1,807.9,221.6,806.5,220.7"/>
		</g>
		<polygon class="st0" points="809,185.1 809,189.7 822.8,189.7 822.8,226.3 828.1,226.3 828.1,189.7 842,189.7 842,185.1 		"/>
		<path class="st0" d="M439.7,262.7h-13l6.9-17.7L439.7,262.7z M437.7,241.1H430l-16.2,41.2h5.3l5.9-15.3h16.2l5.3,15.3h5.5
			l-14.2-41L437.7,241.1z"/>
		<g>
			<path class="st0" d="M483.4,277.7c-1.7,0.3-3.8,0.5-6.3,0.5c-4.9,0-8.9-1.4-11.9-4c-3.3-3-5-7.3-5-12.7c0-5.5,1.6-9.6,4.8-12.4
				c2.7-2.4,6.4-3.6,11-3.6c3.7,0,7.1,0.5,10.1,1.6l0.3,0.1l1.5-4.3l-0.3-0.1c-3-1.3-7-2-11.8-2c-6.6,0-11.8,1.9-15.5,5.8
				c-3.7,3.8-5.6,9.1-5.6,15.6c0,6.1,1.9,11.1,5.6,14.9c3.9,4,9.1,6,15.7,6c4.3,0,8.5-0.6,12.3-1.7l0.2-0.1v-16.5h-5.3L483.4,277.7
				L483.4,277.7z"/>
		</g>
		<polygon class="st0" points="501.9,263.9 518.6,263.9 518.6,259.4 501.9,259.4 501.9,245.5 519.9,245.5 519.9,241.1 496.6,241.1 
			496.6,282.3 521.2,282.3 521.2,277.9 501.9,277.9 		"/>
		<polygon class="st0" points="556.1,273.4 556.5,277.8 536.4,241.3 536.3,241.1 528.7,241.1 528.7,282.3 533.9,282.3 533.9,249.8 
			533.7,246.6 553.2,282.2 553.3,282.3 561.4,282.3 561.4,241.1 556.1,241.1 		"/>
		<g>
			<path class="st0" d="M599.6,276.9c-2.2,0.8-5.2,1.2-9.1,1.2c-4.9,0-8.9-1.4-11.9-4c-3.3-3-5-7.3-5-12.7c0-5.5,1.6-9.6,4.8-12.4
				c2.7-2.4,6.4-3.6,11-3.6c3.7,0,7.1,0.5,10.1,1.6l0.3,0.1l1.5-4.3l-0.3-0.1c-3-1.3-7-2-11.8-2c-6.6,0-11.8,1.9-15.5,5.8
				c-3.7,3.8-5.6,9.1-5.6,15.6c0,6.1,1.9,11.1,5.6,14.9c3.9,4,9.1,6,15.7,6c4.6,0,8.6-0.5,11.7-1.6l0.3-0.1l-1.6-4.4L599.6,276.9z"
				/>
		</g>
		<polygon class="st0" points="621.5,261.7 611.3,241.3 611.2,241.1 605.3,241.1 618.7,266.4 618.7,282.3 623.9,282.3 623.9,266.4 
			637.9,241.6 638.2,241.1 632.5,241.1 		"/>
	</g>
	<g>
		<path class="st0" d="M305.1,157.5c0,0-13.1-54.8-19.7-82.3h2.8c4,0,7.9,0,11.8,0c0.7,0,1,0.2,1.2,0.9
			c5.1,23.4,10.2,46.8,15.3,70.2c0.1,0.3,0.2,0.6,0.3,1.2c0.6-1.4,1-2.6,1.5-3.9c6.2-15.8,12.4-31.6,18.5-47.4
			c0.2-0.6,0.2-1.3,0-1.9c-2.1-6.1-4.2-12.1-6.3-18.2c-0.1-0.3-0.2-0.5-0.3-0.9c0.3,0,0.6,0,0.9,0c4.6,0,9.3,0,13.9,0
			c0.7,0,1,0.2,1.3,0.9c7.5,23.3,15,46.6,22.5,69.8c0.1,0.3,0.2,0.6,0.4,1.1c6.5-24.1,12.9-47.9,19.3-71.8h15
			c-0.1,0.3-0.1,0.6-0.2,0.8c-7.9,26.9-15.8,53.8-23.7,80.7c-0.1,0.5-0.3,0.8-0.9,0.8c-6.7,0-13.3,0-20.1,0
			c-5.1-15.1-10.3-30.2-15.5-45.5c-0.5,1.3-0.9,2.4-1.3,3.4c-5.2,13.7-10.3,27.5-15.5,41.2c-0.2,0.5-0.4,0.8-1.1,0.8
			C318.9,157.5,305.1,157.5,305.1,157.5z"/>
		<path class="st0" d="M439.5,85.3c-3.8,11.3-7.6,22.5-11.4,33.7h21.3C446.1,107.8,442.8,96.7,439.5,85.3 M450.5,75.2
			c9.5,27.5,19,54.8,28.5,82.3h-1.6c-4.8,0-9.5,0-14.2,0c-0.7,0-0.9-0.2-1.1-0.8c-2.9-8.5-5.8-17-8.6-25.6c0-0.1-0.1-0.2-0.1-0.3
			h-1.1c-9.1,0-18.2,0-27.3,0c-0.9,0-1.3,0.2-1.6,1.1c-3.1,8.2-6.2,16.5-9.3,24.7c-0.2,0.6-0.5,0.9-1.2,0.9c-4.8,0-9.5,0-14.3,0h-1
			c0.2-0.4,0.2-0.7,0.4-1c10.6-26.8,21.1-53.6,31.7-80.4c0.3-0.7,0.6-1,1.4-1C437,75.2,450.5,75.2,450.5,75.2z"/>
		<path class="st0" d="M819.9,115.7c0-3.9-0.6-8.6-2.4-13c-1.8-4.5-4.6-8.3-8.7-11c-3.4-2.3-7.1-3.6-11.1-4
			c-4.2-0.4-8.3-0.3-12.3,0.7c-5.4,1.4-9.8,4.3-13.1,8.8c-2.9,4-4.2,8.5-4.9,13.3c-0.5,3.8-0.5,7.6,0,11.5c0.6,4.5,1.7,8.9,4.1,12.8
			c2.6,4.2,6.2,7.4,10.8,9.3c3.2,1.4,6.6,1.9,10.1,1.9c4.3,0,8.5-0.4,12.5-2.1c5.4-2.3,9.4-6,11.9-11.4
			C819.1,127.4,819.9,122.1,819.9,115.7 M751.1,116.6c0.2-6.8,1.3-13.4,4.2-19.6c2.1-4.5,5-8.5,8.7-11.9c5.3-4.7,11.5-7.5,18.3-9
			c5.6-1.3,11.3-1.4,17.1-1c4.4,0.3,8.7,1.1,12.8,2.7c8.6,3.3,15.1,9,19.1,17.4c2.4,5,3.7,10.4,4.2,15.9c0.4,4.3,0.4,8.7-0.2,13
			c-1,7.6-3.6,14.6-8.5,20.6c-3.5,4.3-7.9,7.4-13,9.7c-4.3,2-8.9,3.1-13.6,3.6c-4.6,0.5-9.2,0.6-13.8,0.1c-4.9-0.5-9.7-1.6-14.2-3.7
			c-6.1-2.8-11.1-7.1-14.6-12.9c-3.1-5-4.9-10.5-5.6-16.3C751.6,122.4,751.4,119.5,751.1,116.6"/>
		<polygon class="st0" points="1009.6,110.2 1048.8,110.2 1048.8,75.1 1064.8,75.1 1064.8,158.2 1048.9,158.2 1048.9,122.8 
			1009.6,122.8 1009.6,158.2 993.7,158.2 993.7,75.1 1009.6,75.1 		"/>
		<path class="st0" d="M523.9,113.7c12,14.8,23.9,29.5,35.9,44.4c-0.4,0-0.6,0.1-0.8,0.1c-6.3,0-12.6,0-18.9,0
			c-0.6,0-0.9-0.2-1.3-0.6c-10.7-14.2-21.4-28.3-32.1-42.5c-0.2-0.2-0.3-0.4-0.6-0.8v43.9h-16v-83H506v37.6c0.1,0,0.1,0.1,0.2,0.1
			c0.2-0.2,0.4-0.5,0.6-0.7c10-12.1,20-24.2,30-36.3c0.2-0.3,0.7-0.6,1.1-0.6c6.4,0,19.5,0,19.8,0
			C546.4,88.1,535.3,100.8,523.9,113.7"/>
		<polygon class="st0" points="879.8,158.2 863.7,158.2 863.7,87.9 836.7,87.9 836.7,75.1 906.6,75.1 906.6,87.9 879.8,87.9 		"/>
		<rect x="1082.1" y="75.1" class="st0" width="15.9" height="83.1"/>
		<path class="st0" d="M714.7,113.7c12,14.8,23.9,29.5,35.9,44.4c-0.4,0-0.6,0.1-0.8,0.1c-6.3,0-12.6,0-18.9,0
			c-0.6,0-0.9-0.2-1.3-0.6c-10.7-14.2-21.4-28.3-32.1-42.5c-0.2-0.2-0.3-0.4-0.6-0.8v43.9h-16v-83h15.9v37.6c0.1,0,0.1,0.1,0.2,0.1
			c0.2-0.2,0.4-0.5,0.6-0.7c10-12.1,20-24.2,30-36.3c0.2-0.3,0.7-0.6,1.1-0.6c6.4,0,19.5,0,19.8,0C737.2,88.1,726,100.8,714.7,113.7
			"/>
		<path class="st0" d="M605.8,85.4c-3.9,11.4-7.7,22.7-11.5,33.9h21.4C612.4,108.1,609.1,96.8,605.8,85.4 M616.8,75.2
			c9.6,27.7,19.2,55.3,28.8,83H644c-4.8,0-9.6,0-14.3,0c-0.7,0-0.9-0.2-1.1-0.8c-2.9-8.6-5.8-17.2-8.7-25.8c0-0.1-0.1-0.2-0.1-0.3
			h-1.2c-9.2,0-18.4,0-27.5,0c-0.9,0-1.3,0.2-1.7,1.1c-3.1,8.3-6.3,16.6-9.4,24.9c-0.2,0.6-0.5,0.9-1.2,0.9c-4.8,0-9.6,0-14.5,0h-1
			c0.2-0.4,0.2-0.7,0.4-1c10.7-27,21.3-54,32-81c0.3-0.7,0.6-1,1.4-1C603.2,75.2,616.8,75.2,616.8,75.2z"/>
		<path class="st0" d="M942,85.4c-3.9,11.4-7.7,22.7-11.5,33.9h21.4C948.6,108.1,945.3,96.8,942,85.4 M953,75.2
			c9.6,27.7,19.2,55.3,28.8,83h-1.6c-4.8,0-9.6,0-14.3,0c-0.7,0-0.9-0.2-1.1-0.8c-2.9-8.6-5.8-17.2-8.7-25.8c0-0.1-0.1-0.2-0.1-0.3
			h-1.2c-9.2,0-18.4,0-27.5,0c-0.9,0-1.3,0.2-1.7,1.1c-3.1,8.3-6.3,16.6-9.4,24.9c-0.2,0.6-0.5,0.9-1.2,0.9c-4.8,0-9.6,0-14.5,0h-1
			c0.2-0.4,0.2-0.7,0.4-1c10.7-27,21.3-54,32-81c0.3-0.7,0.6-1,1.4-1C939.4,75.2,953,75.2,953,75.2z"/>
	</g>
	<path class="st0" d="M267.8,299.4c-24.9-2.7-27.3-48.6-30-98.2c-0.3-5.3-0.6-10.5-0.9-15.8c-3.4-55.5-10.2-110.4-51.5-110.4
		C105.6,74.9,77,201.1,77,201.1h130.3l-2-15.8H100.5c18.1-78.9,95.6-135.5,112,0l2,15.8c5.5,53.5,21,96.8,53.8,98.4
		C268.4,299.5,268,299.4,267.8,299.4"/>
	<path class="st0" d="M274.2,185.3l3.1,15.8h86.9c-3.9,26.4-75.7,101.3-94,0l-3.1-15.8c-2.9-11.2-11.2-99.1-62.8-109.4
		c-1.1-0.2-2.2-0.4-3.3-0.5c-0.2,0-0.8-0.1-0.5,0l0.3,0c35.4,5.6,41.7,57.5,44.9,109.9c0.3,5.3,0.6,10.5,0.9,15.8
		c2.8,51.1,5.4,98.4,32.4,98.4c47.7,0,95.4-64,104.1-114.2H274.2z"/>
</g>
</svg>
